<svg width="116" height="32" viewBox="0 0 116 32" fill="none" xmlns="http://www.w3.org/2000/svg">
<path d="M66.3229 28.0695L66.1952 23.3999C66.1392 21.3292 64.4717 19.7076 62.401 19.7076C61.3692 19.7076 60.5354 20.5485 60.5426 21.5803L60.5857 27.8428L58.4991 27.8571L58.4532 21.2144C58.4389 19.2341 60.0418 17.6211 62.0221 17.6211H62.4024C63.9436 17.6211 65.4002 18.2123 66.5051 19.2872C67.6101 20.362 68.2415 21.8027 68.2831 23.3425L68.4108 28.0121L66.3229 28.0695Z" fill="white"/>
<path d="M74.5958 28.1758H71.7716C70.5347 28.1758 69.5301 27.2015 69.5301 26.0003C69.5301 26.0003 72.8106 26.184 74.6933 25.8956C74.722 25.8913 74.8368 23.5106 72.4963 23.6584C70.78 23.7675 69.4297 22.4315 69.4297 20.7611C69.4297 19.0735 70.8446 17.6801 72.5824 17.6543L75.0636 17.6184C76.3006 17.6012 77.3194 18.5598 77.3367 19.7609C77.3367 19.7609 73.9313 19.4796 72.6154 19.8283C72.1031 19.9632 71.6568 20.2674 71.6712 20.784C71.6841 21.249 72.0917 21.5862 72.5695 21.6121C74.016 21.691 74.8354 22.0569 75.6677 22.8533C76.5029 23.6541 76.8588 24.5251 76.8444 25.6645C76.8229 27.2431 75.276 28.1758 74.5958 28.1758Z" fill="white"/>
<path d="M87.3011 24.9858C87.3025 20.8358 85.3165 19.4524 82.7779 19.3979L80.3814 19.3476V13.5789H78.2949V28.0927H80.3814V21.4356L82.7334 21.4844C84.1254 21.5131 85.3323 22.9481 85.2132 24.9485L85.2146 28.0123L87.3011 28.0482V24.9858Z" fill="white"/>
<path d="M95.7491 17.7417V22.7485C95.7491 24.9828 93.2981 26.3934 91.3967 25.221C91.3005 25.1622 91.2101 25.0976 91.1255 25.0287C90.5213 24.5336 90.2271 23.7831 90.2271 22.7356C90.2271 21.7942 90.4883 21.1068 91.0279 20.639C92.0453 19.7522 94.271 19.8469 94.9039 19.9344L94.9957 17.8063C94.8651 17.7876 91.6206 17.3643 89.6661 19.0562C88.6529 19.933 88.1406 21.1714 88.1406 22.7356C88.1406 24.4275 88.7017 25.7434 89.8096 26.6489C91.0523 27.6634 92.427 28.0954 93.6841 27.8916C94.581 27.7452 95.5152 27.2702 95.7979 27.0335C95.7721 27.5501 96.1767 27.9877 96.6934 28.0007L97.8356 28.0294V17.7417H95.7491Z" fill="white"/>
<path d="M99.8409 27.9031L99.8223 21.457V21.4441C99.8438 20.4496 100.254 19.5183 100.977 18.8223C101.701 18.1263 102.658 17.7432 103.671 17.7432H104.806C106.006 17.7432 106.979 18.6616 106.979 19.7938H103.671C102.722 19.7938 101.935 20.5486 101.909 21.4785L101.927 27.8988L99.8409 27.9031Z" fill="white"/>
<path d="M115.502 25.6704L111.618 25.7191C111.611 25.7191 111.602 25.7191 111.595 25.7191C111.15 25.7191 110.731 25.557 110.412 25.2628C110.2 25.0662 110.048 24.8251 109.967 24.5611C109.972 24.5611 109.975 24.5625 109.979 24.5625C110.909 24.5625 112.773 24.7534 113.908 23.8651C114.618 23.3097 115.035 22.5377 115.113 21.6336C115.247 20.0982 114.641 19.207 114.109 18.7306C112.8 17.5568 110.632 17.7419 110.409 17.7706L110.364 19.5844C110.364 19.5844 112.176 19.7093 112.675 20.1628C112.965 20.4254 113.086 20.8673 113.033 21.4729C113 21.8518 112.856 22.1287 112.578 22.3468C112.483 22.4215 112.373 22.4817 112.252 22.5305C111.128 22.9811 109.884 22.1775 109.877 21.0252L109.854 17.7706L107.768 17.7835L107.811 24.1306C107.818 25.0949 108.222 25.9975 108.95 26.6706C109.662 27.3292 110.599 27.6909 111.592 27.6909C111.609 27.6909 111.626 27.6909 111.644 27.6909L113.442 27.6679C114.597 27.6521 115.518 26.7581 115.502 25.6704Z" fill="white"/>
<path d="M47.304 28.2906H36.7652C33.9813 28.2906 31.7168 26.1983 31.7168 23.6253V22.9437H33.8033V23.6253C33.8033 25.0474 35.1321 26.204 36.7652 26.204H43.7825C44.5488 26.204 45.1644 25.5755 45.15 24.8106C45.0969 22.13 42.3675 21.1786 40.0471 21.1786H38.2763C37.6994 21.1786 37.233 20.7108 37.233 20.1353C37.233 19.5585 37.7008 19.0921 38.2763 19.0921H39.0397C39.9337 19.0921 40.6627 18.4793 40.6627 17.7245V16.5248C40.6627 15.77 39.9337 15.1544 39.0368 15.1544H33.8033V20.1353H31.7168V13.0679H39.0368C41.0832 13.0679 42.7492 14.6191 42.7492 16.5248V17.7245C42.7492 18.3057 42.5943 18.8539 42.3202 19.3346C45.282 20.0076 47.1806 22.0238 47.2337 24.769L47.304 28.2906Z" fill="white"/>
<path d="M52.8018 17.2295C50.0782 17.2295 47.8711 19.6805 47.8711 22.7027C47.8711 25.7248 50.0782 28.1758 52.8018 28.1758C55.5255 28.1758 57.7326 25.7248 57.7326 22.7027C57.7326 19.6805 55.5241 17.2295 52.8018 17.2295ZM52.9166 26.4667C51.3209 26.4667 50.0279 24.8394 50.0279 22.8318C50.0279 20.8242 51.3209 19.1969 52.9166 19.1969C54.5124 19.1969 55.8053 20.8242 55.8053 22.8318C55.8053 24.8394 54.5124 26.4667 52.9166 26.4667Z" fill="white"/>
<path d="M21.013 15.9981C21.013 15.9981 20.3299 15.5374 19.2379 14.9677C16.0866 13.3232 9.52567 10.766 6.11749 15.7283C4.1386 18.6084 4.66956 21.3608 4.95513 22.3079C6.62836 27.8557 11.6366 31.1074 16.6606 30.2321C15.0376 31.3514 13.1233 32 11.0726 32C5.20338 32 0.446291 26.7033 0.446291 20.1697C0.446291 19.7377 1.04182 7.5042 0 0.0248702C0 0.0248702 8.04186 -0.882063 9.74522 8.25758C9.74666 8.25758 9.7481 8.25759 9.74953 8.25615C10.0337 8.20162 16.3736 6.9345 19.4632 9.49888C22.3519 11.8968 21.013 15.9981 21.013 15.9981Z" fill="white"/>
<path d="M21.013 15.9981C21.013 15.9981 20.3299 15.5375 19.2378 14.9678C15.3288 8.77855 9.74805 8.27486 9.74805 8.27486V8.25333C10.0322 8.1988 16.3721 6.93167 19.4617 9.49606C22.3518 11.8968 21.013 15.9981 21.013 15.9981Z" fill="#40B876"/>
<path d="M19.6124 29.2117C19.2264 29.417 18.7241 29.6394 18.3079 29.7944C17.7382 30.0082 17.3608 30.0871 16.6979 30.222C16.6706 30.2335 16.6448 30.2464 16.6175 30.2579C16.6318 30.2478 16.6462 30.2392 16.6605 30.2292L16.5587 30.2464C11.5677 31.0601 6.61683 27.8155 4.95508 22.305C4.95508 22.305 14.6845 29.262 19.3957 23.509C20.8623 21.7181 21.5611 19.1494 21.1249 17.0313C20.0816 11.9685 15.9488 8.63211 11.0726 8.33506C10.6091 8.30636 10.1054 8.25614 9.74805 8.27192C10.3421 7.89451 10.9621 7.53145 11.6466 7.32338C17.6751 5.48655 22.5642 9.22478 24.2963 12.7535C25.1831 14.2976 28.3976 23.486 19.6124 29.2117Z" fill="#75CBC8"/>
<path d="M16.5587 30.2478C11.5677 31.0615 6.61683 27.8169 4.95508 22.3064C4.95364 22.3064 8.78945 28.7525 16.5587 30.2478Z" fill="#40B876"/>
</svg>
